<?xml version="1.0" encoding="UTF-8"?>
<svg id="Layer_1" xmlns="http://www.w3.org/2000/svg" version="1.1" viewBox="0 0 15 15">
  <!-- Generator: Adobe Illustrator 29.0.0, SVG Export Plug-In . SVG Version: 2.1.0 Build 186)  -->
  <defs>
    <style>
      .st0 {
        fill: #0e0d09;
      }

      .st1 {
        fill: #f3f4f6;
      }
    </style>
  </defs>
  <circle class="st0" cx="7.49" cy="7.49" r="7.49"/>
  <g>
    <path class="st1" d="M6.83,8c1.03-1.76,1.11-2.27.74-2.17-.24.07-.91.84-1.37,1.75-.45.92-.81,1.94-.53,2.67-.65-.19-1.48-.25-1.93.06.28-1.05.8-2.1.92-2.31,1.03-1.76,1.04-2.27.68-2.17-.44.12-1.52,1.67-1.98,3.39-.11.51-.14.95-.03,1.22-.65-.2-1.56-.15-2.01.17.83-1.88,2.13-4.96,2.11-5.88.61.2,1.08.17,1.83-.21-.22.36-.61,1.14-.98,2.01.71-1.16,1.52-1.99,2.22-1.89.55.08.62.58.47,1.24.58-.81,1.22-1.32,1.77-1.24,1.01.15.36,1.7-.31,2.93-.64,1.2-.68,1.85-.27,1.85.35,0,1-.8,1.52-1.81h.35c-.53,1.06-1.66,3.03-2.79,3.03s-1.29-1.09-.38-2.63Z"/>
    <path class="st1" d="M8.89,8.58c.37-.84.93-1.16,1.26-1.27.05-.92.43-1.91.88-2.37.8-.81,2.05-.65,2.37-.28-1.02,0-1.48.71-1.43,1.7.05.82.32,1.73.26,2.44.34-.17.73-.56,1.08-1.2h.35c-.42.81-.85,1.47-1.63,1.86-.35.64-1.09,1.18-1.97,1.18-1.08,0-1.6-1.08-1.18-2.05ZM10.1,9.55c.25,0,.71-.24.83-1.01.12-.77-.33-1.67-.04-2.66-.35.51-.6,2.29-.53,2.72-.12-.23-.18-.5-.2-.79-.36.15-.6.49-.64.98-.03.52.32.76.58.76Z"/>
  </g>
</svg>